<?xml version="1.0" encoding="utf-8"?>
<!-- Generator: Adobe Illustrator 27.8.0, SVG Export Plug-In . SVG Version: 6.00 Build 0)  -->
<svg version="1.1" id="uuid-cbb4bb66-49c1-4ccd-8119-274a5911d1b0"
	 xmlns="http://www.w3.org/2000/svg" xmlns:xlink="http://www.w3.org/1999/xlink" x="0px" y="0px" viewBox="0 0 2048 672.2"
	 style="enable-background:new 0 0 2048 672.2;" xml:space="preserve">
<g>
	<path d="M1182.2,395.1c-3.2,0-6.3,0-9.5,0c-4.7,0-9.4,0-14,0c-4.6,0-9.2,0-13.8,0c-3.4,0-6.8,0-10.2-0.1c-0.1,0-0.2,0-0.3,0
		c-3.2,0-5.1,1.2-5.9,4.5c-1.2,5-2.6,9.9-3.9,14.9c-0.8,2.9-0.1,4.7,3.4,4.7h0c8.3,0,16.7,0,25,0c8.1,0,16.2,0,24.3,0h0
		c3.1,0,4.7-1.4,5.4-4.3c1.2-4.8,2.6-9.6,3.8-14.4C1187.6,395.7,1187.1,395.2,1182.2,395.1L1182.2,395.1z"/>
	<path d="M711.1,395.1c-8.9,0-17.7,0-26.6,0c-8.4,0-16.7,0-25.1,0h-2c-1.2,5.7-1.9,9.3-2.9,13.7l0,0c-0.3,1.4-0.6,2.9-1,4.5
		c0,0.1-0.1,0.3-0.1,0.4c-0.1,0.3-0.1,0.6-0.2,0.9c-0.1,0.3-0.1,0.5-0.2,0.8c-0.1,0.2-0.1,0.5-0.2,0.7c-0.1,0.4-0.2,0.8-0.3,1.2
		c0,0.2-0.1,0.4-0.1,0.6c-0.1,0.6-0.3,1.3-0.5,1.9c7.1,0,14.2,0,21.3,0c10.1,0,20.2,0,30.3,0c0.3,0,0.6,0,0.9,0c0.1,0,0.3,0,0.4,0
		c0.1,0,0.3,0,0.4,0c0.6,0,1.1,0,1.6-0.1c0,0,0.1,0,0.1,0c0.5,0,1-0.1,1.4-0.2c0,0,0,0,0,0l0,0c1.2-0.3,1.9-1.1,2.4-2.5l0,0
		c0,0,0,0,0,0c0.3-0.9,0.6-2,1-3.5c1.1-4.4,2.3-8.8,3.3-13.1C716.4,395.6,716.1,395.1,711.1,395.1L711.1,395.1z"/>
	<path d="M1928.9,456.1c-8.7-19.1-33.6-39-76.2-60.7c-5.2-2.6-10.5-5.3-16.1-7.9c-2.5-6.4-8.7-10.8-15.8-10.8c-0.1,0-0.2,0-0.3,0
		c-0.6-2-1.5-4.1-3.1-6.2c-5.7-7.3-13.7-7.4-18-7.4c-6.6,0-13.2,0-19.8,0c-6.3-2.4-12.7-4.9-19.4-7.3c3-12.1,6.3-24,9.8-36.1
		c2.4-8.3,1.4-15.4-2.9-21.1c-3-3.9-8.7-8.6-19.3-8.6c-0.2,0-0.4,0-0.6,0c-5.9,0.1-12.2,0.1-20,0.1c-4.7,0-9.5,0-14.2,0
		c-0.6,0-1.2,0-1.8,0c1.8-6.4,3.4-12.6,4.9-18.6c0.3-1,0.4-2,0.6-3c16.9,0,31.1,0.1,44.7,0.1h0.3c7.1,0,12.8-1.6,17.5-5
		c5.5-4,9-9.9,10.4-17.5c0.5-2.5,1.3-5.2,2.1-8.1c0.7-2.4,1.4-4.9,2.1-7.6c1.1-4.5,3.3-13.7-2.9-21.6c-6.2-7.9-15.4-7.9-19.9-7.9
		c-28,0-53.5-0.1-77.9-0.1c-28.1,0-54.1,0-79.5,0.1c-16.7,0-27.7,8.3-32.7,24.6c-1.9,6.1-3.7,12.5-5.4,19.1c-1.2,0-2.5,0-3.8,0
		c-4.2,0-8.4,0.1-12.5,0.1l-0.9,0c-18.1,0.2-29.2,8.6-33.9,25.6c-1.4,5.2-2.8,10.3-4.2,15.2c-51-12.4-105.2-24.6-160.9-36
		c1.6-6.1,3.2-12.2,4.8-18.2c1.5-5.8,3.8-14.5-2.2-22.4c-6-7.9-14.9-7.9-20.8-8c-0.4,0-0.7,0-1.1,0c-1.8,0-3.6,0-5.3,0.1
		c-1.6,0-3.1,0.1-4.6,0.1c-1.9,0-3.5-0.1-4.8-0.2c-1.1-0.1-2.2-0.2-3.2-0.2c-4.3,0-10.6,0.9-16.1,5.2c-1.4-1.2-3.1-2.2-4.9-2.8l0,0
		c-1.3-0.6-4.5-2-8.6-2c-8.1,0-16.3-0.1-24.3-0.1c-7.7,0-15.6,0-23.4-0.1h-0.1c-5.6,0-19,1.9-23.6,19.6c-0.2,0.6-0.4,1.4-0.6,2.4
		c-34.6-6.1-69.2-11.8-103.2-17.1c-5.8-4.8-13.1-4.9-17.3-5c-0.5,0-1,0-1.5,0c-1.8,0-3.5,0-5.2,0.1c-1.6,0-3,0.1-4.5,0.1
		c-1.9,0-3.4-0.1-4.7-0.2c0,0-0.1,0-0.1,0c-209.9-32.3-450.3-53.2-614.1-53.3h-0.9c-67.3,0-126,3.5-172.4,10.1l-6.8-54
		c-1.1-8.5-8.3-14.9-16.9-14.9s-15.8,6.4-16.9,14.9l-7.3,58.5c-0.4,3.1-2.8,5.5-5.9,5.9l-58.5,7.3c-8.5,1.1-14.9,8.3-14.9,16.9
		c0,7,4.3,13.2,10.6,15.7c-0.7,2-1.3,4-1.6,6.1c-2.1,6.3-3,15.4,1.9,26.3c8.7,19.1,33.6,39,76.2,60.7c40.4,20.6,94,41.6,159.2,62.2
		c-9.1,0-21.2,0-33.3,0h-9.5h-9.2c-10.9,0-22,0-29.1,0c-12.7,0-21.3,6.5-24.8,18.8c-1.2,4.3-2.3,8.6-3.4,12.7
		c-0.8,2.9-1.5,5.7-2.2,8.5c-0.5,1.8-1.4,5.3-1.3,9.3c-1.6,2.4-2.8,5.3-3.5,8.4c-1.1,4.9-2.6,10-4,14.6c-2.6,8.8,0,15,2.7,18.6
		c2.7,3.6,7.8,7.9,17.1,7.9h0.1c13.5,0,27.9-0.1,46.6-0.1c8.4,0,16.7,0,25.1,0l12.8,0c7.7,0,14.5-2.5,19.8-6.9
		c4.5,4.6,10.8,6.9,18.8,6.9c4.8,0,9.9,0,16.2,0c3.9,0,7.9,0,11.8,0c3.8,0,7.6,0,11.4,0h0.3c3.8,0,7.6,0,11.4,0c3.8,0,7.6,0,11.4,0
		c6.3,0,11.5,0,16.3,0c14.7-0.1,26.3-8.7,30.2-22.4c1-3.7,2.8-9.8,4.7-16.2c0.6-2.1,1.2-4.3,1.9-6.4c1.9,4.6,5.4,8.1,9.7,10
		l-6.2,13.5c-2.5,5.4-2.1,11.7,1.1,16.7c3.2,5,8.7,8,14.7,8c5.3,0,10.2-2.4,13.5-6.5l32-39.6c-0.2,0.8-0.4,1.5-0.6,2.4
		c-0.6,2.9-1.5,6-2.4,9.2c-0.4,1.6-0.9,3.1-1.3,4.7c-0.9,3.5-3.1,11.6,2.5,19.1c5.7,7.5,14.3,7.5,17.9,7.5c14,0,28.1,0,42.1,0
		c13.7,0,27.4,0,41.1,0c8,0,15-2.6,20.4-7.1c4.5,4.7,11,7,19.3,7c5.8,0,11.6,0,17.4,0c4.1,0,8.2,0,12.4,0c4.1,0,8.2,0,12.3,0
		c3.9,0,7.8,0,11.7,0c3.9,0,7.7,0,11.6,0c7.5,0,13.5,0,19,0.1c0.2,0,0.3,0,0.5,0c5.2,0,9.9-1.4,13.7-4c5.3,3.9,11.3,3.9,13.6,3.9
		c14,0,28,0,41.9,0c14.7,0,29,0,42.6,0c7.7,0,14.5-2.5,19.8-6.9c3.1,3.2,8.7,6.9,17.7,6.9c13.9,0,27.9,0,41.6,0
		c14.8,0,30.1,0,45.2,0h0.1c5.9,0,11-1.9,14.9-5.3c4.3,3.4,10,5.2,17.1,5.2c5.4,0,10.8,0,16.2,0c3.9,0,7.8,0,11.8,0
		c3.8,0,7.6,0,11.4,0h0.3c3.8,0,7.6,0,11.4,0c3.8,0,7.6,0,11.4,0c5.3,0,10.6,0,15.9,0c7.5,0,14.1-2.1,19.3-5.9
		c0.4,0.4,0.9,0.8,1.3,1.2c-1.8,2.4-3,5.3-3.5,8.5l-1,6.2c-0.9,5.3,0.5,10.7,3.7,15c1,1.4,2.3,2.6,3.6,3.7
		c-6.2,2.7-10.9,8.2-12,15.2l-1,6.2c-0.9,5.3,0.5,10.7,3.7,15c3.3,4.4,8.5,7.4,14.1,8l34.9,4.1c0.8,0.1,1.7,0.1,2.5,0.1
		c2.4,0,4.8-0.4,7-1.2c0.1,4.7,1.6,9.2,4.4,12.9c2.6,3.4,7.6,7.6,16.3,8.4c4.2,0.4,8.7,0.7,14.4,1c0.5,0,0.9,0,1.4,0
		c6.2,0,11.7-2.1,15.8-5.7c5.4,0.4,10.8,0.7,16,1.1c5.1,0.3,10.2,0.7,15.3,1.1c0.9,0.1,1.8,0.1,2.7,0.1c8.1,0,15.3-2.7,20.8-7.7
		c3.1,0.2,6.2,0.4,9.4,0.5c0.4,0,0.8,0,1.2,0c11.6,0,21.9-5,27.9-12.9c0.1,0,0.1,0,0.2,0c2.4,0,4.6-0.6,6.8-1
		c8.8-1.6,35.6-1.6,35.6-1.6c39.1,2.2,133.2,7.3,195.5,7.3h1.4c60.9,0,112.2-1.9,153.2-5.8l4.1,32.9c1.1,8.5,8.3,14.9,16.9,14.9
		s15.8-6.4,16.9-14.9l4.8-38.2c1.4-0.2,2.8-0.5,4.2-0.7c24.6-4.2,43-9.4,56.3-15.9c16.4-8.1,25.8-18.6,27.8-31.5
		C1932.9,476,1933.8,466.9,1928.9,456.1L1928.9,456.1z M1766,380.1c3.5,0,6.9,0,10.4,0l0,0c7.7,0,15.3,0,23,0c5.4,0,5.5,0.2,4.1,5.4
		c-0.1,0.5-0.3,1.1-0.4,1.6c0,0,0,0,0,0c-0.4,1.4-0.6,2.5-0.9,3.5c-1.1,4.1-1.7,4.6-5.6,4.6c-1.3,0-2.8-0.1-4.9-0.1
		c-0.2,0-0.4,0-0.6,0c-6.3,0-12.6,0-18.9,0c-9.2,0-18.5,0-27.7,0h-0.5c-0.5,0-0.9,0-1.4,0c-0.6,0-1.2,0-1.8,0c-2,0.1-4.3,0.3-4.2,3
		c0.1,1.7,1.4,1.9,2.7,1.9c0.4,0,0.9,0,1.2,0c0,0,0,0,0.1,0c2.9,0,5.8,0,8.7,0c1.9,0,3.8,0,5.7,0c3.3,0,6.7,0,10,0
		c4.3,0,4.8,0.6,3.6,4.8c-2.7,9.2-2,10.1-6.8,10.1c-1.2,0-2.8-0.1-4.9-0.1c-0.3,0-0.6,0-0.8,0c-4.9,0-9.9,0.1-14.8,0.1
		c-7.5,0-14.9,0-22.4,0h-0.4c-0.3,0-0.6,0-1,0c-0.7,0-1.4,0-2.2,0c-1.9,0.1-4,0.4-4,2.7c0,1.9,1.2,2.2,2.5,2.2c0.5,0,1.1,0,1.6,0h0
		c23.8,0,47.6,0,71.4,0c7.5,0,7.6,0.1,5.5,7.2c-1.2,4.2-2.6,8.4-3.4,12.6c-0.8,4-2.9,5.1-6.7,5.1c-0.1,0-0.2,0-0.3,0
		c-6.3-0.1-12.7-0.1-19-0.1c-7.7,0-15.3,0-23,0h-0.5c-8.1,0-16.2,0-24.3,0c-5.8,0-11.6,0-17.4,0c-7.5,0-9.5-2.6-7.7-9.8
		c2.4-9.2,4.8-18.4,7.4-27.5c1.7-6.2,3.5-7.4,10-7.5c7.8-0.1,12.8-3.9,14.8-11.6c1.8-6.8,3.7-8.3,10.8-8.3
		C1744.2,380.1,1755.1,380.1,1766,380.1L1766,380.1z M1522.5,342.9c0.5-2,1-4,1.6-6c0.2-0.7,0.4-1.4,0.6-2.1
		c1.2-4.5,2.5-9.1,3.7-13.7c0.5-2,1.1-4.1,1.5-6.2c1.5-5.7,3-11.4,4.6-17c0.5-1.7,0.9-3.5,1.4-5.2c1.6-6,3.2-11.9,4.9-17.9
		c2.7-9.7,7.4-13,17.7-13.1c4.4-0.1,8.8-0.1,13.2-0.1c3.4,0,6.9,0,10.3,0.1c0.2,0,0.3,0,0.5,0c4.4,0,6.7-1.9,7.8-6.3
		c2.1-8.4,4.3-16.7,6.9-24.9c2.8-9.1,7.3-12.6,16.5-12.6c26.5,0,53-0.1,79.5-0.1c26,0,51.9,0,77.9,0.1c7.4,0,8.1,1.1,6.3,8.6
		c-1.3,5.6-3.4,11-4.4,16.6c-1.2,6.6-4.8,8.6-11.3,8.6c-0.1,0-0.1,0-0.2,0c-19.9-0.1-39.8-0.2-59.7-0.2c-20.5,0-41.1,0-61.6,0h0
		c-0.8,0-1.7,0-2.5,0c-1.8,0-3.5,0-5.3,0.2c-3.3,0.4-6.5,1.6-6.5,5.5c-0.1,4.3,3.3,4.3,6.2,4.3c0.1,0,0.2,0,0.3,0c0.1,0,0.2,0,0.3,0
		c18.8,0.1,37.6,0,56.4,0.1c2.1,0,4.2,0,6.3,0.1c3.7,0.1,5.3,2,4.4,5.6c-2,7.8-4.1,15.6-6.3,23.4c-1.2,4.4-4.6,4.6-8,4.6
		c-0.5,0-1.1,0-1.6,0c-33.4,0-66.8,0-100.2,0h0c-0.9,0-1.8,0-2.8,0c-1.4,0-2.8,0-4.2,0.2c-4.1,0.5-7.1,2.7-7.2,6.9
		c0,4.1,2.8,4.5,5.7,4.5c0.6,0,1.2,0,1.8,0h0c40.7,0,81.4,0,122.1,0c9.4,0,18.8,0.1,28.3,0.1c6.8,0,13.5,0,20.3-0.1
		c0.1,0,0.2,0,0.3,0c6,0,7.5,2.3,5.9,8.1c-3.8,13.3-7.5,26.6-10.8,40.1c-1.5,5.9-4.6,7.7-10.4,7.7c-0.1,0-0.1,0-0.2,0c-1,0-2,0-3,0
		l0,0c-15-0.1-29.9-0.1-44.9-0.1c-16.7,0-33.3,0-50,0c-18.6,0-37.2,0-55.8,0c-8.5,0-17,0-25.5,0c-5,0-10,0-15,0
		c-0.8,0-1.5,0-2.3-0.1c-0.2,0-0.4,0-0.7,0c-0.5,0-1-0.1-1.5-0.1c-0.2,0-0.4,0-0.6-0.1c-0.6-0.1-1.2-0.2-1.7-0.3c-0.1,0-0.1,0-0.2,0
		c-0.6-0.1-1.1-0.3-1.7-0.5c-0.2-0.1-0.4-0.1-0.5-0.2c-0.4-0.1-0.7-0.3-1-0.4c-0.2-0.1-0.3-0.2-0.5-0.2c-0.4-0.2-0.7-0.4-1.1-0.6
		c-0.1-0.1-0.2-0.1-0.3-0.2c-0.4-0.3-0.8-0.5-1.1-0.8c-0.1-0.1-0.3-0.2-0.4-0.4c-0.2-0.2-0.4-0.4-0.6-0.6c-0.1-0.1-0.2-0.3-0.4-0.4
		c-0.2-0.3-0.4-0.5-0.5-0.8c-0.1-0.1-0.2-0.3-0.2-0.4c-0.2-0.4-0.4-0.8-0.5-1.2c-0.1-0.2-0.1-0.4-0.2-0.6c-0.1-0.3-0.2-0.6-0.2-0.9
		c-0.1-0.2-0.1-0.4-0.1-0.7c-0.1-0.3-0.1-0.7-0.1-1c0-0.2-0.1-0.4-0.1-0.6C1521.3,349.2,1521.7,346.2,1522.5,342.9L1522.5,342.9z
		 M1418.6,485.9c-1.8-0.6-3.3-1.7-5.1-2.2c-4.9-9.7-15.1-16.2-28.1-17.3c-2.2-0.2-4.4-0.3-6.6-0.5c-1.1-1.4-2.4-2.8-4-4.1
		c0.4,0,0.8,0,1.2,0c4,0,8.1,0,12.1,0c3.8,0,7.7,0,11.5,0c3.9,0,7.8,0,11.6,0c7.7,0,14,0,19.7,0.1h0.3c6.1,0,11.3-2,15.3-5.5
		c4.3,3.6,10.1,5.4,17.1,5.4c5.3,0,10.6,0,15.9,0c3.6,0,7.1,0,10.7,0c3.5,0,7,0,10.5,0l12.6,0l12.8,0c7.5,0,15,0,22.5,0h0.2
		c2.9,0,6.7-0.2,10.6-2c5.9-2.7,10-7.8,11.7-14.3c1.6-6.4,3.3-12.9,4.9-19c2.1-7.9-0.6-13.6-2.7-16.5c0.8-0.4,1.6-0.8,2.3-1.3
		c2.9,2.2,7.2,4.2,13.4,4.2c0.2,0,0.3,0,0.5,0c2.3,0,4.7-0.1,7.3-0.1c-0.7,2.7-1.5,5.4-2.2,8.1c-1.2,4.4-2.4,8.9-3.6,13.3
		c-1.1,4-3.3,12.5,2.5,20c5.8,7.6,14.4,7.6,18.5,7.7c1.1,0,2.2,0,3.4,0c0.9,0,1.9,0,2.8,0c0.4,0,0.7,0,1.1,0c0.6,0,1.1,0,1.6,0
		c0.5,0,1,0,1.4,0c3.3,0,10.9,0,16.9-6.5c3.7-4,4.8-8.3,6-12.9c0.2-0.6,0.3-1.3,0.5-2.1c0.5-2,1-3.9,1.5-5.9c0.5-1.9,1-3.9,1.5-5.8
		c13,9.8,15.7,15.7,16.2,17.2l-0.7,1.7l-0.2,2.3c-0.3,0.6-2.1,3.7-9.8,8.3c-8.3,4.9-20.3,9.6-34.9,13.5
		c-34.3,9.4-81.5,15-136.4,16.1c-13.5,0.3-22.1,0.5-29,0.7c-1.5,0-2.9,0.1-4.2,0.1C1449.7,488.8,1426,488.4,1418.6,485.9
		L1418.6,485.9z M1356.1,400c7.8-0.1,12.7-3.8,14.7-11.2c1.9-7.2,3.7-8.7,11-8.7c10.8,0,21.5,0,32.3,0c11.1,0,22.2,0,33.3,0
		c5.8,0,5.9,0.1,4.4,5.4c-2.3,8.7-1.8,9.6-6.8,9.6c-1.3,0-2.9-0.1-5-0.1c-0.2,0-0.4,0-0.6,0c-6.3,0-12.6,0-18.9,0
		c-9,0-18.1,0-27.1,0h-1.6c-1,0-2,0-3.1,0.1c-1.8,0.1-3.5,0.5-3.6,2.6c-0.1,2.1,1.4,2.2,2.9,2.2c0.2,0,0.4,0,0.6,0c0,0,0.1,0,0.1,0
		c8.1,0.1,16.3,0,24.4,0.1c4.8,0,5.3,0.5,4,4.9c-2.7,9.1-2,10.1-6.8,10.1c-1.2,0-2.8-0.1-4.9-0.1c-0.3,0-0.6,0-0.9,0
		c-4.8,0-9.6,0.1-14.4,0.1c-7.4,0-14.8,0-22.1,0h-0.1c-0.6,0-1.2,0-1.8,0c-0.5,0-0.9,0-1.4,0c-2.1,0.1-4.8-0.1-4.8,2.8
		c0,1.9,1.2,2.2,2.5,2.2c0.7,0,1.5-0.1,2.1-0.1h0c7.9,0,15.7,0,23.6,0c6.2,0,12.5,0,18.7,0h1c5.6,0,11.2,0,16.9,0
		c4.2,0,8.4,0,12.7,0c5.1,0,5.5,0.5,4.1,5.6c-1.3,4.9-2.9,9.8-4.1,14.8c-0.8,3.4-2.5,4.6-5.9,4.6c0,0-0.1,0-0.1,0
		c-6.6-0.1-13.2-0.1-19.8-0.1c-7.7,0-15.4,0-23.1,0c-8.3,0-16.5,0-24.8,0c-5.8,0-11.5,0-17.3,0c-7.5,0-9.5-2.6-7.6-9.9
		c2.4-9,4.8-18.1,7.3-27.1C1347.7,401.3,1349.4,400.1,1356.1,400L1356.1,400z M1656.2,413.1c5.9,0.1,10.5,0.2,14.2,0.2
		c3,0.1,5.4,0.1,7.4,0.1c0.2,0,0.4,0,0.6,0c-1.4,5.1-2.8,10.3-4.2,15.7C1670,424,1663.9,418.6,1656.2,413.1L1656.2,413.1z
		 M1677.8,396.4c-5,0-13.7-0.4-29.4-0.4c-6.4,0-8.6,2.4-9.8,5.7l0,0l0,0c-0.5,1.3-0.8,2.8-1.2,4.3c-0.1,0.4-0.2,0.9-0.3,1.3
		c-0.6,2.1-1.2,4.1-1.7,6.2c-0.5,1.7-1,3.5-1.4,5.2c0,0,0,0,0,0c-1.6,5.8-3.1,11.6-4.6,17.4c-2.2,8.2-1.8,8.8-7,8.8
		c-0.8,0-1.8,0-3,0c-0.4,0-0.8,0-1.2,0c-0.9,0-1.8,0-2.6,0c-1.1,0-2.2,0-3.2,0c-5.9,0-6.2-0.5-4.6-6.3c3.3-12.2,6.6-24.4,9.8-36.7
		c1.3-5,0.6-6-4.6-6c-4.2,0-8.5-0.1-12.7-0.1c-3.6,0-7.2,0-10.8,0.1c-0.1,0-0.1,0-0.2,0c-2.1,0-3.4-0.5-3.7-1.8c0,0,0,0,0,0
		c0-0.2-0.1-0.4-0.1-0.6c0-0.1,0-0.3,0-0.4c0-0.2,0-0.3,0-0.5c0-0.1,0-0.2,0.1-0.4c0.1-0.3,0.1-0.6,0.2-1
		c3.1-10.1,2.1-11.1,7.2-11.1c0.3,0,0.6,0,1,0c0,0,0.1,0,0.1,0c0.6,0,1.3,0,2,0c0,0,0,0,0,0c0.6,0,1.2,0,1.8,0c0.5,0,1,0,1.5,0
		c3.1,0,6.2-0.1,9.3-0.1c5,0,10.1,0,15.1,0c0.2,0,0.5,0,0.7,0c6.3,0,21.3,0,34.9,0c10.4,0,20,0,24.3,0c4.7,0,4.9,0.4,3.8,5
		c-0.3,1.2-2.4,8.2-2.7,9.3C1684,396,1682.7,396.4,1677.8,396.4L1677.8,396.4z M1520.7,380.1c0.5,0,0.9,0,1.4,0c8.4,0,16.7,0,25.1,0
		c1.2,0,2.5,0,3.7,0l0,0c4.7,0,9.4,0,14.1,0c5.6,0,6,0.5,4.5,5.6c-0.2,0.5-0.3,1.1-0.4,1.5c0,0,0,0,0,0c-2,7.2-1.6,7.9-6.6,7.9
		c-1.2,0-2.8,0-4.8,0c-0.1,0-0.2,0-0.3,0c-11.1,0-22.2,0.1-33.3,0.1c-11.8,0-23.6,0-35.4-0.1c0,0-0.1,0-0.1,0
		c-4.1,0-6.3,1.4-7.1,5.5c-0.9,4.6-2.4,9-3.5,13.5c-1.2,4.5-0.9,4.9,3.9,4.9c12.5,0,25,0,37.6,0c9.5,0,19,0,28.5,0
		c1.9,0,3.9,0,5.8,0c1,0,2,0,3.1,0c0.2,0,0.4,0,0.6,0c0,0,0,0,0.1,0c2.1,0,2.9,0.9,2.4,3.1c-1.7,6.4-3.4,12.8-5,19.3
		c-0.8,3.2-3.1,3.5-5.8,3.5c0,0-0.1,0-0.1,0c-7.5,0-15,0-22.6,0c-8.4,0-16.9,0-25.3,0c-7.1,0-14.1,0-21.2,0c-5.3,0-10.6,0-15.9,0
		c-6.9,0-9.3-2.8-7.6-9.3c4.3-16.5,8.7-32.9,13.2-49.3c1.2-4.5,3.6-6.1,8.8-6.1c6.5,0,12.9,0,19.4,0
		C1505.3,380.1,1513,380.1,1520.7,380.1L1520.7,380.1z M1349.3,286.5c1.8-6.9,3.7-13.7,5.5-20.6c35.8,7.4,71.3,15,105.9,23
		c-14.7,0-29.3,0-44,0h-18.8h-18.8h-30.4c0.1-0.4,0.2-0.8,0.3-1.2L1349.3,286.5L1349.3,286.5z M1322.1,217.7c0.5,0,1.1,0,1.7,0.1
		c2.1,0.2,4.2,0.3,6.4,0.3c3.3,0,6.6-0.1,9.9-0.1c0.3,0,0.6,0,1,0c8.6,0.1,9,0.4,6.7,9.1c-1.7,6.4-3.4,12.9-5.1,19.3
		c-1.4,5.4-2.9,10.8-4.3,16.2c-1.8,6.6-3.5,13.2-5.3,19.7c-1.5,5.5-3,11.1-4.2,16.7c-1,4.5,0.9,7,5.7,7c0,0,0,0,0,0
		c0.2,0,0.3,0,0.5,0c2.2,0,4.4,0,6.5,0c12.6,0,25.1,0,37.7,0s25.1,0,37.6,0c28.9,0,57.8,0,86.8,0c8.5,0,10.6,0,9.9,4.8
		c-2.1,7.8-4,15.2-5.9,22.5c-1.6,5.7-3.1,11.3-4.5,17c-0.4,1.5-0.7,2.9-1.1,4.4c-0.1,0.4-0.2,0.8-0.3,1.2c0,0.1-0.1,0.2-0.1,0.3
		c-0.1,0.3-0.2,0.5-0.3,0.8c0,0.1-0.1,0.2-0.1,0.3c-0.1,0.3-0.2,0.5-0.3,0.7c0,0.1-0.1,0.2-0.1,0.2c-0.1,0.3-0.3,0.5-0.4,0.7
		c0,0,0,0.1-0.1,0.1c-0.7,1.1-1.6,2-2.7,2.6c-1.6,0.9-3.6,1.3-6.1,1.3c-0.1,0-0.2,0-0.2,0c-15.7-0.1-31.3-0.2-47-0.2
		c-17,0-33.9,0-50.9,0c-18.7,0-37.4,0-56.1,0c-12.6,0-25.2,0-37.9,0c-17.5,0-21.6-5.4-17.1-22c10.2-38,20.5-76.1,30.4-114.2
		C1314.1,220.8,1316.4,217.7,1322.1,217.7L1322.1,217.7z M1237.4,224.8c1-3.8,2.5-6.8,7.1-6.8c0,0,0,0,0.1,0
		c15.9,0.1,31.8,0,47.7,0.1c1,0,1.9,0.6,2.8,0.9c1,4.3-1,7.9-1.9,11.6c-5.2,20-22.6,83.6-27.6,103.6c-4.5,18.4-16.2,28.8-36.8,28.8
		c-0.3,0-0.6,0-0.9,0c-24.2-0.3-48.4-0.4-72.6-0.4c-31.8,0-63.6,0.2-95.3,0.2h-0.4c-1.4,0-2.8,0-4.2,0c-1.2,0-2.4,0-3.6-0.1
		c-10.2-0.6-15.3-7-12.8-16.9c4.6-18.2,9.5-36.3,14.4-54.5c5.7-21.4,11.7-42.8,17.1-64.3c1.5-6,4.1-9.4,10.1-9.4
		c0.4,0,0.9,0,1.3,0.1l0,0c0.1,0,0.3,0,0.4,0c2.1,0.2,4.2,0.2,6.3,0.2c3.2,0,6.4-0.1,9.7-0.1c0.4,0,0.9,0,1.3,0c0.4,0,0.8,0,1.2,0
		c0.1,0,0.3,0,0.4,0c0.3,0,0.5,0,0.7,0c0.1,0,0.3,0,0.4,0c0.3,0,0.6,0,0.9,0.1c0.2,0,0.3,0,0.4,0.1c0.1,0,0.3,0,0.4,0.1
		c0.2,0,0.3,0.1,0.4,0.1c0.1,0,0.2,0,0.2,0.1c0.3,0.1,0.5,0.1,0.8,0.2c0,0,0.1,0,0.1,0c0.1,0.1,0.2,0.1,0.3,0.2c0,0,0.1,0,0.1,0.1
		c0.3,0.2,0.6,0.5,0.8,0.8c0,0,0,0,0,0c0.1,0.1,0.1,0.2,0.2,0.4c0,0,0,0,0,0c0.1,0.4,0.2,0.9,0.2,1.5c-0.1,1.2-0.4,2.9-1,5.1
		c-5.8,21.7-11.7,43.3-17.4,65c-3.8,14.3-3.7,14.3,11.1,14.3c18.3,0,36.7,0,55,0c16.6,0,33.3,0,49.9,0c10.5,0,10.8-0.2,13.5-10.1
		c1.7-6.3,9.2-34.2,14.4-53.4l0,0c1.9-7.3,3.5-13.3,4.4-16.5l0,0C1237.3,225.5,1237.4,225.1,1237.4,224.8L1237.4,224.8z
		 M1202.7,288.9c-15.9,0-31.8,0-47.7,0l-33,0l-14.8,0c2.7-10.2,5.5-20.5,8.2-30.5c2.5-9.2,4.9-18.3,7.4-27.5
		c0.5-1.8,1.1-4.2,1.4-6.8c30.1,4.7,60.9,9.8,91.9,15.3C1211.4,256.5,1205.1,279.8,1202.7,288.9L1202.7,288.9z M1043.3,217.8
		c11.7,0,12.1,0.6,8.9,12.1c-1,3.8-2.2,7.5-3.2,11.3c-1.8,6.9-6.4,10.4-13.8,10.4c-25.2,0-50.5,0-75.7,0c-12.7,0-25.4,0-38.1,0
		c-16.6,0-33.2,0-49.9,0c-13.6,0-13.8,0.2-17.3,13.7c-2.8,10.9-5.8,21.7-8.5,32.6c-1.9,7.6-0.8,9.2,6.7,9.2c16.9,0,33.9,0,50.8,0
		c20.6,0,41.3,0,61.9,0c1.6,0,3.2,0,4.7-0.4c3-0.8,5.4-2.6,5.2-5.9c-0.2-3.6-3.2-3.6-5.9-3.6c-6.5-0.1-13-0.1-19.5-0.1
		c-1.4,0-2.9,0-4.3,0c-0.7,0-1.3,0-2,0c-2.2,0-4.3,0-6.5,0c-12.5,0-24.9,0-37.4,0c-11.7,0-23.4,0-35.1,0c-8.6,0-9-0.5-6.9-9.1
		c1.5-6.1,3.6-12,4.8-18.2c1.2-6.4,4.6-8.2,10.7-8.2c0.1,0,0.1,0,0.2,0c15.7,0.1,31.5,0.1,47.2,0.1c17.1,0,34.3,0,51.4,0
		c11.5,0,23.1,0,34.6,0c9.3,0,18.7,0,28,0c8.2,0,8.9,0.9,6.8,8.5c-6.1,23-12.1,45.9-18.4,68.8c-4.1,15-15.5,23.7-30.9,23.7
		c-29.5,0-58.9,0-88.4,0c-30,0-60.1,0-90.1,0c-13.5,0-18.7-6.3-15.2-19.6c0.7-2.6,1.4-5.2,2.1-7.8c0.1-0.3,0.2-0.6,0.2-0.8
		c1.1-4.1,2.3-8.3,3.4-12.5c0.5-2,1.1-4.1,1.5-6.3c5.8-22,11.8-44,17.7-66c0.2-0.7,0.4-1.5,0.6-2.3c1.4-5.2,2.8-10.3,4.2-15.5
		c2.8-10.4,7.9-14.2,18.7-14.2c14.8,0,29.6,0,44.3,0c16.5,0,33,0,49.5,0c1.6,0,3.2,0,4.8,0c19.7,0,39.4,0,59.1,0
		C1017.4,217.8,1030.3,217.8,1043.3,217.8L1043.3,217.8z M794.3,292c-4.7-1.9-9.8-1.9-14.5-1.9c-11.3,0-22.6,0-34,0
		c0.7-3.1,1.6-6.4,2.6-9.8c0.3-1,0.6-2.1,0.9-3.1c0.8-2.7,1.6-5.6,2-8.6c16.8,0,31.2,0.1,44.6,0.2h0.3c1.5,0,3-0.1,4.4-0.3
		C798.5,276.2,796.4,284,794.3,292L794.3,292z M468.8,164.5c0.3,0,0.6,0,0.9,0c137.7,0.1,321.5,14.6,492.1,36.3c-0.2,0-0.5,0-0.7,0
		l-15.7,0h-4.8c-8.2,0-16.5,0-24.7,0c-8.2,0-16.5,0-24.7,0c-17.8,0-31.5,0-44.4,0c-9,0-16.4,2.2-22.2,6.5
		c-6.1-6.5-14.6-6.5-19.3-6.5c-26.1,0-52.3,0-78.4,0c-27.3,0-52.4,0-76.6,0c-15.3,0-26.1,6.2-32.2,18.4c-33.1,0.9-62.4,3-87.6,6.1
		c-0.8-4.8-2.6-9-5.4-12.7c-6-7.8-15.5-11.7-28.2-11.7l-10.3,0c-20.4,0-40.8,0-61.2,0c-18.9,0-35.8,0-51.3,0.1
		c1.5-2.6,2.4-5.5,2.4-8.7c0-8.6-6.4-15.8-14.9-16.9l-34.2-4.3C366.4,166.8,413.9,164.5,468.8,164.5L468.8,164.5z M612.2,236.4
		c-0.8,2.7-1.5,5.4-2.2,8.2c-1,0-2.1,0-3.2,0c-2.5,0-4.9,0-7.3,0.1c-1.6,0-3.2,0-4.8,0c-7,0-15.9,0.8-23.6,6.7
		c-1.4,1.1-2.6,2.2-3.7,3.4c-4.3-4.9-12.2-10-25.9-10.1c-3.8,0-7.9,0-12.9,0c0.1-0.5,0.3-1,0.4-1.5c0.1-0.2,0.1-0.4,0.1-0.6
		C553.6,239.5,581.6,237.4,612.2,236.4L612.2,236.4z M194.9,218.1c0.2-2.5,1-5,2.5-7.4l45.3,5.7c3.1,0.4,5.5,2.8,5.9,5.9l7.3,58.5
		c0,0.3,0.1,0.6,0.2,1C209.2,256.5,187.8,234.2,194.9,218.1L194.9,218.1z M272.8,278.6l-7.3-58.5c-1.4-10.8-9.8-19.2-20.6-20.6
		l-28.8-3.6l-3.6-0.5l-26-3.3l58.5-7.3c10.8-1.4,19.2-9.8,20.6-20.6l7.3-58.5l7.3,58.5c0.1,0.6,0.2,1.3,0.3,1.9
		c0,0.2,0.1,0.4,0.1,0.6c0.1,0.4,0.2,0.8,0.3,1.2c0.1,0.2,0.2,0.5,0.2,0.7c0.1,0.3,0.2,0.7,0.4,1c0.1,0.3,0.2,0.5,0.3,0.8
		c0.1,0.3,0.3,0.6,0.4,0.9c0.1,0.3,0.2,0.5,0.4,0.8c0.1,0.3,0.3,0.6,0.5,0.8c0.1,0.3,0.3,0.5,0.4,0.8c0.2,0.3,0.3,0.5,0.5,0.8
		c0.2,0.2,0.3,0.5,0.5,0.7c0.3,0.5,0.7,0.9,1,1.3l0,0c3.8,4.5,9.1,7.5,15.2,8.3l58.5,7.3l-58.5,7.3c-10.8,1.4-19.2,9.8-20.6,20.6
		L272.8,278.6L272.8,278.6z M280.3,293.8c5-2.5,8.6-7.3,9.3-13.1l7.3-58.5c0.4-3.1,2.8-5.5,5.9-5.9l32.1-4
		c-2.2,3.8-3.3,8.2-4.7,13.8c-0.3,1.2-0.6,2.4-1,3.8c-0.3,1.3-0.7,2.6-1.1,4c-0.2,0.8-0.5,1.6-0.7,2.5c-1.5,5.3-3.5,12.2-1,19
		c-2,3-3.5,6.5-4.3,10.6c0,0.1,0,0.2-0.1,0.3c-0.5,2.6-0.9,4.9-1.3,7.2c-0.6,3.2-1,6-1.6,8.9c-0.2,1-0.4,1.8-0.6,2.6
		c-1.2,5.5-3.1,13.8,2.8,21.2c6.1,7.6,14.8,7.6,21.2,7.6c10.1,0,23.8,0,39.1,0h20.5l21.7,0c16.5,0,34.6,0,49.1,0
		c-1.6,6-3.2,11.9-4.7,17.8c-1.6,6.1-3.2,12.1-4.9,18.2c-0.7,2.7-1.6,6-1.7,9.7c-13.1-3.8-25.8-7.7-38-11.5
		C365.2,329.5,317.1,311.1,280.3,293.8L280.3,293.8z M426.6,384.5c-3.1,9.8-1.7,10.7-7.3,10.7c-1.3,0-2.9,0-5.1,0
		c-0.3,0-0.7,0-1.1,0c-4.8,0-13.9,0-23.9,0c-11.5,0-24.3,0-33.7,0c-4.3,0-7.8,0-10.3,0h-0.1c-0.4,0-0.8,0-1.2,0
		c-1.9,0-3.8,0.2-4.7,2.6c1,1.3,2.1,1.5,3.3,1.5c0.8,0,1.6-0.1,2.3-0.1h0c14.8,0,29.6,0,44.4,0h4.9c5.4,0,10.8,0,16.2,0h0
		c0.7,0,1.3,0,2,0c1,0,2,0,2.9,0.2c3.9,0.6,6.1,3.2,5.1,7c-2.5,9.9-4.9,19.9-8,29.6c-1.8,5.8-6.4,8.9-12.8,8.9h0
		c-12.6,0-25.3,0-37.9,0c-15.5,0-31.1,0-46.6,0.1h0c-3.5,0-4.5-1.2-3.5-4.6c1.6-5.2,3.1-10.4,4.3-15.7c0.8-3.6,2.6-4.8,6.2-4.8
		c0,0,0.1,0,0.1,0c9.9,0.1,19.8,0.1,29.7,0.1c10.9,0,21.8,0,32.6-0.1h0c1,0,2.2,0.2,3.3,0.2c1.7,0,3.1-0.4,3.1-2.3
		c0-1.7-1.1-2.1-2.4-2.1c-1.3,0-2.8,0.4-3.9,0.4c0,0,0,0,0,0c-10.4-0.1-20.8-0.1-31.2-0.1c-5.6,0-11.2,0-16.8,0c-3.3,0-6.6,0-9.8,0
		c-6.7,0-7.9-1.7-6.1-8.3c1.9-7,3.6-14,5.5-21c1.4-4.9,3.4-6.4,8.5-6.4c6.9,0,17.4,0,29.1,0c6.1,0,12.4,0,18.7,0c16.1,0,31.8,0,41,0
		c0,0,0,0,0.1,0C426.7,380.1,427.6,381.4,426.6,384.5L426.6,384.5z M544.8,386.3c-0.1,0.4-0.2,0.7-0.3,1.1c0,0.1-0.1,0.3-0.1,0.4
		c-0.1,0.3-0.2,0.6-0.2,0.9c0,0.2-0.1,0.3-0.1,0.5c-0.1,0.3-0.2,0.6-0.2,0.9c0,0.1-0.1,0.3-0.1,0.4c-0.1,0.4-0.2,0.7-0.3,1.1
		c0,0.1-0.1,0.3-0.1,0.4c-0.1,0.5-0.3,1-0.4,1.5c0,0,0,0,0,0c-0.5,1.7-1,3.5-1.5,5.4c-3.6,12.5-8.3,28.6-10.4,36
		c-1.9,6.5-6.9,10-13.9,10.1c-5.4,0-10.8,0-16.3,0c-7.6,0-15.2,0-22.8,0h-0.3c-7.7,0-15.5,0-23.2,0c-5.4,0-10.8,0-16.1,0
		c-7.2,0-9.3-2.8-7.5-9.6c4.5-16.7,9.1-33.4,13.5-50.2c0.9-3.4,2.4-5,5.5-5c0.4,0,0.8,0,1.2,0.1c0.7,0.1,1.4,0.1,2,0.1
		c1.1,0,2.2-0.1,3.2-0.1c0.2,0,0.4,0,0.6,0c4.3,0.1,4.7,0.6,3.5,4.9c-2.6,9.8-5.3,19.5-7.9,29.2c-1.1,4.3-0.7,4.9,3.6,4.9
		c4.9,0,9.8,0,14.6,0c4.4,0,8.8,0,13.3,0c7,0,14,0,20.9,0.1c0,0,0.1,0,0.1,0c3.2,0,4.9-1.2,5.6-4.4c0.6-2.9,4.3-14.6,6.6-22.4
		c0,0,0,0,0,0c0.1-0.4,0.2-0.7,0.3-1.1c0-0.1,0-0.1,0.1-0.2c0.1-0.3,0.2-0.6,0.2-0.8c0-0.1,0.1-0.2,0.1-0.3c0.1-0.2,0.1-0.4,0.2-0.6
		c0-0.1,0.1-0.2,0.1-0.3c0.1-0.2,0.1-0.4,0.2-0.6c0-0.1,0.1-0.2,0.1-0.3c0-0.2,0.1-0.3,0.1-0.5c0-0.1,0.1-0.2,0.1-0.3
		c0-0.1,0.1-0.3,0.1-0.4c0-0.1,0-0.2,0.1-0.2c0-0.1,0.1-0.3,0.1-0.4c0-0.1,0-0.1,0-0.2c0-0.2,0.1-0.3,0.1-0.5
		c0.6-2.5,1.8-3.9,4.5-3.9c0.1,0,0.1,0,0.2,0c3,0.1,6.1,0.1,9.1,0.1c3,0,6,0,9-0.1c0.1,0,0.1,0,0.2,0
		C545,382.1,545.5,383.5,544.8,386.3L544.8,386.3z M473.3,402.3c1.2-4.3,2.3-8.5,3.5-12.8c0.4-1.5,1.2-4.4,1.1-7.8
		c7.5,2.1,15.1,4.2,22.8,6.3c-0.6,2-1.3,4.2-1.8,6c-1,3.3-1.8,6-2.5,8.2c-4.4,0-8.6,0-12.4,0l-6.6,0L473.3,402.3L473.3,402.3z
		 M540.9,337.8c-0.5,1.7-1.3,4.8-1.6,8.6c-0.7,2.6-1.3,5.1-2,7.7c-1.5,6.1-4.2,8.9-10.5,8.9c-0.3,0-0.5,0-0.8,0
		c-5.2-0.2-10.5-0.2-15.7-0.2c-6.8,0-13.6,0.1-20.3,0.1c-1.3,0-2.6,0-3.9,0c-8.2,0-8.5-0.5-6.3-8.7c4.2-15.9,8.5-31.7,12.7-47.6
		c2.3-8.7,1.6-9.6-7.3-9.6c-14.8,0-37.5,0-61.3,0c-14.2,0-28.8,0-42.2,0c-15.3,0-29,0-39.1,0c-10.4,0-9.1-0.5-6.9-10.9
		c1.1-5.3,1.8-10.2,3-16.5c1.2-5.9,4.4-7.8,10.2-7.8c0.1,0,0.2,0,0.3,0c10,0.1,28.3,0.1,47.6,0.1c23.5,0,48.3,0,60.5,0h0.1
		c0.6,0,1.2,0,1.8,0c1.5,0,2.9,0,4.3-0.1c4.2-0.2,8.5-1.3,8.2-6.3c-0.2-3.3-2.3-3.8-4.6-3.8c-1.2,0-2.4,0.1-3.5,0.1h0
		c-37.3-0.1-74.6-0.1-111.9-0.1c-10.6,0-10.9-0.4-8-10.6c0.6-2.3,1.3-4.5,1.9-6.8c3.9-15,3.4-16.5,12-16.5c2.2,0,5,0.1,8.5,0.1
		c0.2,0,0.3,0,0.5,0c19.5,0,39-0.1,58.4-0.1c23.8,0,47.7,0,71.5,0c10,0,15.5,3.2,16.8,9.7c0,0.2,0.1,0.3,0.1,0.5
		c0.1,0.4,0.1,0.7,0.1,1.1c0,0.2,0,0.4,0.1,0.6c0,0.5,0,1.1,0,1.6c0,0.2,0,0.4,0,0.6c0,0.5-0.1,1-0.1,1.5c0,0.1,0,0.3,0,0.4
		c-0.1,0.7-0.2,1.3-0.3,2.1c0,0.2-0.1,0.4-0.1,0.5c-0.2,0.7-0.3,1.5-0.5,2.3c-0.5,2.1-1.1,4.2-1.7,6.3c-1.4,5.2-2.8,10.6-4.4,16.5
		c7.7,0,14.9,0,21.9,0c4.4,0,8.7,0,13,0c11.7,0.1,17,5.1,15.9,15.1C551,299.7,545.8,319.2,540.9,337.8L540.9,337.8z M556.2,348.9
		c3.4-13.1,6.9-26.2,10.3-39c2.1-7.9,4.3-16.1,6.4-24.2c0.5-1.9,0.9-3.7,1.1-5.5c0.3-1,0.6-2.1,0.9-3.1c3.3-12,7.8-15.3,20.1-15.4
		c4,0,8-0.1,12-0.1c2.8,0,5.6,0,8.4,0.2c0.4,0,0.7,0,1,0c4.9,0,7.8-1.8,8.9-7.3c1.3-6.2,3.1-12.4,4.8-18.5c0,0,0,0,0,0
		c0.3-1.1,0.6-2.3,1-3.4c0.2-0.6,0.3-1.1,0.5-1.7c0.1-0.2,0.1-0.3,0.2-0.5c0.1-0.4,0.3-0.8,0.4-1.1c0.1-0.2,0.1-0.3,0.2-0.5
		c0.2-0.5,0.4-0.9,0.6-1.4c0.1-0.1,0.1-0.3,0.2-0.4c0.2-0.3,0.3-0.6,0.5-0.9c0.1-0.2,0.2-0.4,0.3-0.5c0.1-0.2,0.3-0.4,0.4-0.7
		c0.1-0.2,0.2-0.4,0.4-0.5c0.2-0.3,0.5-0.6,0.7-0.9c0.2-0.2,0.3-0.4,0.5-0.5c0.1-0.1,0.2-0.3,0.4-0.4c0.2-0.2,0.4-0.4,0.5-0.5
		c0.1-0.1,0.2-0.2,0.3-0.3c0.7-0.6,1.4-1.1,2.2-1.5c0.1-0.1,0.2-0.1,0.3-0.2c0.3-0.1,0.5-0.3,0.8-0.4c0,0,0.1,0,0.1-0.1
		c0.6-0.3,1.3-0.5,2-0.7c2.2-0.6,4.7-0.9,7.6-0.9c25.5,0,51.1,0,76.6,0c26.1,0,52.2,0,78.4,0c8.2,0,8.8,0.8,6.8,8.5
		c-1.4,5.5-3.2,10.9-4.4,16.5c-0.2,0.8-0.5,1.7-0.7,2.5c-1.6,4.6-4.9,6.3-10.6,6.3c-0.1,0-0.1,0-0.2,0c-19.9-0.1-39.8-0.2-59.8-0.2
		c-20.8,0-41.6,0-62.4,0h0c-0.8,0-1.5,0-2.3,0c-1.8,0-3.6,0-5.4,0.3c-3.1,0.4-5.6,2.3-5.6,5.5c-0.1,4,3.3,4.2,6.2,4.2
		c19.3,0.1,38.6,0.1,57.9,0.1c11.1,0,11.4,0.4,8.4,10.9c-1.4,5-2.9,10-4,15.1c-1.2,5.8-4.5,7.9-10.4,7.9c-0.1,0-0.1,0-0.2,0
		c-15.8-0.1-31.6-0.1-47.5-0.1c-17.6,0-35.2,0-52.7,0.1c-0.1,0-0.2,0-0.3,0c-0.3,0-0.6,0-0.9,0c-2.5,0-5,0-7.4,0.5
		c-3.4,0.7-5.6,2.9-5.2,6.7c0.4,3.8,3.2,4.3,6.3,4.4c6,0,12,0,18,0c9.8,0,19.7,0,29.6,0c15.6,0,31.2,0,46.8,0c24.9,0,49.8,0,74.7,0
		c8,0,10,0,9.3,4.5c-1.8,6.6-3.5,13.3-5.3,19.9c-2.1,7.7-4.3,15.4-6.1,23.1c-1.5,6.2-4.5,8.2-10.7,8.2c-0.1,0-0.2,0-0.2,0
		c-15.7-0.1-31.4-0.2-47.2-0.2c-16.9,0-33.8,0-50.7,0c-18.5,0-37.1,0-55.6,0c-13.3,0-26.6,0-39.9,0
		C561,362.8,555.5,358.6,556.2,348.9L556.2,348.9z M561.9,386.6c0.3-3.2,0-5.9-0.8-8.2c5.2,1.3,9.9,1.3,12.3,1.3c0.1,0,0.2,0,0.3,0
		l-7.8,7.8C564.6,387.3,563.3,386.9,561.9,386.6L561.9,386.6z M605.8,407.8l-32.5,40.2c-0.1,0.1-0.2,0.2-0.3,0.2
		c-0.3,0-0.5-0.3-0.4-0.6l16.8-36.4l-18.1,0.5c0,0,0,0-0.1,0c-1.9,0-2.9-2.4-1.5-3.8l11-11l4.3-4.3l0,0l12.1-12.2
		c0.1-0.1,0.2-0.1,0.3-0.1c0.3,0,0.5,0.3,0.4,0.6l-9.3,22.8l15.7,0.6C606,404.2,607,406.3,605.8,407.8L605.8,407.8z M628.7,381.3
		c-0.3,1.2-0.7,2.6-1.2,4.3c-0.1,0.3-0.1,0.5-0.2,0.8c-0.3,1-0.7,2.4-1.5,5.5c-0.7,2.8-1.7,6.6-2.9,10.9c-0.3-1.5-0.7-2.9-1.4-4.3
		c-1.9-4.1-5-7.3-8.8-9.2l0.8-2c1-2.4,1.4-4.9,1.3-7.3c4.7,0,9.5,0,14.2,0C629,380.3,628.8,380.8,628.7,381.3L628.7,381.3z
		 M744,389.5c-3.9,15-7.8,30-12,45c-1.9,6.8-7,10.4-14.1,10.4c-13.7,0-27.4,0-41,0c-14,0-28.1,0-42.1,0c-5.1,0-5.4-0.4-4.1-5.1
		c1.3-4.9,2.9-9.8,3.9-14.8c0.2-1,0.5-1.9,0.9-2.5c0.1-2.5,1.6-6.9,3.6-14.2c2.4-8.8,4.2-15.8,4.6-17.2c0-0.1,0.1-0.3,0.1-0.4
		c2.9-9.6,1.6-10.4,7.7-10.4c1.2,0,2.8,0,4.7,0c0.3,0,0.6,0,0.9,0c4.9,0,9.7,0,14.6,0c7.6,0,15.3,0,22.9,0h0.8c7.8,0,15.7,0,23.5,0
		c5.9,0,11.8,0,17.7,0C743.5,380.2,745.7,382.8,744,389.5L744,389.5z M863.8,383.1C863.8,383.1,863.8,383.1,863.8,383.1
		c-0.1,0.5-0.3,1-0.4,1.5c-0.1,0.2-0.1,0.4-0.2,0.7c-2.8,9.1-1.3,9.9-7.4,9.9c-1.3,0-2.9,0-4.9,0c-0.2,0-0.5,0-0.8,0
		c-6.1,0-12.2,0-18.2,0c-8.7,0-17.5,0-26.2,0c-0.5,0-1.1,0-1.6,0h0c-0.4,0-0.7,0-1.1,0c-1,0-2,0-3,0.1c-1.7,0.1-3.5,0.5-3.6,2.6
		c-0.1,2.1,1.3,2.2,2.7,2.2c0.3,0,0.5,0,0.8,0c0,0,0.1,0,0.1,0c3.1,0,6.1,0,9.2,0c1.6,0,3.3,0,4.9,0c3.6,0,7.2,0,10.7,0
		c4.4,0,4.8,0.5,3.6,4.8c-2.6,9.2-2.3,10.3-6.6,10.3c-1.3,0-3-0.1-5.4-0.1c-0.3,0-0.6,0-1,0c-4.8,0.1-9.6,0.1-14.4,0.1
		c-7.3,0-14.6,0-22,0h-0.3c-0.4,0-0.8,0-1.2,0c-0.8,0-1.5,0-2.3,0c-1.9,0.1-4,0.4-4,2.7c0,1.9,1.2,2.2,2.5,2.2c0.5,0,1.1,0,1.6,0h0
		c23.8,0,47.6,0,71.4,0c6.7,0,7.3,0,5.9,5.5c-0.3,1.1-0.6,2.3-1,3.5c-0.6,2.2-1.3,4.4-1.9,6.8c-0.2,0.6-0.4,1.4-0.5,2.4
		c-0.1,0.6-0.3,1.2-0.4,1.8c-0.8,3.7-2.5,5.1-6.3,5.1c-0.1,0-0.1,0-0.2,0c-6.4-0.1-12.8-0.1-19.2-0.1c-7.8,0-15.5,0-23.3,0h0
		c-8.2,0-16.5,0-24.7,0c-5.8,0-11.6,0-17.3,0c-7.7,0-9.8-2.7-7.7-10.2c2.5-9.3,5-18.6,7.6-27.9c1.4-5.1,3.5-6.6,8.7-6.8
		c0.2,0,0.4,0,0.6,0c2.2,0,4.6,0.4,6.8,0.4c1.7,0,3.2-0.2,4.6-1.1c3.4-2.2,2.7-7.4,3.9-11.2c2.3-7.1,3.4-8,11-8
		c10.8,0,21.6,0,32.4,0c11.2,0,22.4,0,33.6,0C863.4,380.1,864.4,380.4,863.8,383.1L863.8,383.1z M979.9,385.4
		c-2.5,9-1.5,9.7-7.4,9.7c-1.2,0-2.7,0-4.5,0c-0.3,0-0.5,0-0.8,0c-4.7,0-13.8,0-23.8,0c-15.4,0-33.1,0-40.7,0h-0.4
		c-0.7,0-1.4,0-2.1,0c-0.5,0-1,0-1.6,0c-1.7,0.1-4.3-0.3-4.4,2c0,1.7,1.1,2,2.3,2c0.7,0,1.4-0.1,2-0.1h0c14.7,0,29.4,0,44.1,0
		c5.3,0,10.5,0,15.8,0c2,0,4.1,0,6.1,0h0c0.7,0,1.4,0,2.2,0c0.6,0,1.3,0,1.9,0c4.7,0.3,7.3,2.9,6.2,7.3c-2.3,10-4.9,19.9-8,29.7
		c-1.8,5.6-6.5,8.6-12.5,8.7c-14.2,0-28.4,0-42.6,0c-14,0-27.9,0-41.9,0c-3.7,0-4.5-0.5-3.9-3.6c0.4-1.7,0.9-3.4,1.4-5.3
		c0.4-1.4,0.8-2.9,1.2-4.4c0.2-0.6,0.3-1.2,0.5-1.9c0.5-1.7,0.9-3.4,1.3-5.1c0.8-3.6,2.7-4.7,6.2-4.7c0,0,0.1,0,0.1,0
		c10.1,0.1,20.2,0.1,30.3,0.1c11,0,22,0,33,0h0c0.4,0,0.9,0,1.3,0c1.9,0,3.8-0.2,5.1-2.5c-1.2-1.3-2.4-1.5-3.6-1.5
		c-0.8,0-1.5,0.1-2.2,0.1h0c-11.4,0-22.8,0-34.2,0c-3.4,0-6.9,0-10.3,0c-4.7,0-9.5,0-14.2,0c-7.3,0-8.4-1.3-6.7-8.2
		c1.5-6.2,3.1-12.5,4.7-18.7c0.1-0.5,0.3-1,0.4-1.6c1.5-5.6,3.7-7.2,9.6-7.2c9.4,0,25.9,0,42.4,0c16.9,0,34,0,43.7,0
		C980.9,380.2,981.2,380.6,979.9,385.4L979.9,385.4z M1098.8,385.4c-2.6,8.8-1.8,9.7-6.9,9.7c-1.3,0-2.9-0.1-5.1-0.1
		c-0.1,0-0.3,0-0.4,0c-11,0-22.1,0.1-33.1,0.1c-11.7,0-23.4,0-35.1-0.1c-0.1,0-0.1,0-0.2,0c-4.3,0-6.5,1.3-7.4,5.7
		c-0.9,4.6-2.4,9-3.5,13.5c-1.1,4.2-0.8,4.7,3.7,4.7c9.2,0,18.4,0,27.6,0c8.4,0,16.7,0,25.1,0c1,0,1.9,0,2.9,0c3.9,0,7.8,0,11.7,0
		c2.6,0,5.1,0,7.7,0c0.1,0,0.1,0,0.2,0c2.7,0,3.7,0.9,2.9,3.8c-1.7,5.9-3.2,11.9-4.6,17.9c-0.7,2.9-2.3,4.2-5.4,4.2h0
		c-28.9-0.1-57.8,0-86.8-0.1c-5.5,0-8-3-6.7-8.1c4.4-17.1,9-34.1,13.6-51.1c1.2-4.3,4.6-5.5,8.7-5.5c0,0,0.1,0,0.1,0
		c6.5,0,13.1,0,19.6,0c8.1,0,16.2,0,24.2,0c8.2,0,16.4,0,24.5,0c6.3,0,12.6,0,18.8,0C1099.7,380.2,1100.1,380.7,1098.8,385.4
		L1098.8,385.4z M1215.6,388.7c-1.7,6.4-3.4,12.9-5.1,19.4c-2.3,8.5-4.5,17-6.8,25.5c-2.1,7.6-6.8,11.3-14.8,11.3
		c-5.3,0-10.5,0-15.8,0c-7.6,0-15.2,0-22.7,0h-0.3c-7.7,0-15.5,0-23.2,0c-5.4,0-10.7,0-16.1,0c-7.2,0-9.4-2.6-7.5-9.5
		c4.3-16.3,8.7-32.6,13.1-48.9c1.2-4.6,3.3-6.2,8.1-6.3c14.6,0,29.1,0,43.7,0c13.6,0,27.2,0,40.8,0.1
		C1214.7,380.2,1216.9,383.2,1215.6,388.7L1215.6,388.7z M1259.1,513.4l-1,6.2c-0.2,1.5-1.8,2.6-3.5,2.6c-0.2,0-0.3,0-0.5,0
		l-34.9-4.1c-2-0.2-3.3-1.8-3-3.4l1-6.2c0.2-1.5,1.8-2.6,3.5-2.6c0.2,0,0.3,0,0.5,0l34.9,4.1C1258,510.2,1259.3,511.7,1259.1,513.4z
		 M1264.7,473.3l-1,6.2c-0.2,1.5-1.8,2.6-3.5,2.6c-0.2,0-0.3,0-0.5,0l-34.9-4.1c-2-0.2-3.3-1.8-3-3.4l1-6.2c0.2-1.5,1.8-2.6,3.5-2.6
		c0.2,0,0.3,0,0.5,0l34.9,4.1C1263.6,470.1,1265,471.7,1264.7,473.3z M1263.6,453l-14.5-1.7c1.2-2,2.1-4.2,2.7-6.6
		c0.7-2.7,1.4-5.4,2.1-8.1c1.2,2.2,2.5,4.4,3.7,6.5c2.3,4,5,7.5,8.1,10.2C1265,453.2,1264.3,453.1,1263.6,453L1263.6,453z
		 M1272.4,434.8c-6.4-11.4-12.9-22.8-19.4-34.2c-0.5-0.9-1-1.9-1.6-2.7c-0.9-1.2-1.8-1.8-2.5-1.8c-0.9,0-1.6,0.8-2.2,2.6
		c-1.9,6-3.4,12.2-5,18.3c-2.1,7.8-4.3,15.7-6.3,23.6c-0.8,3.1-2.4,4.4-5.7,4.4c-1.2,0-2.2,0-3.1,0c-8.2,0-8-0.9-5.4-10.7
		c1.9-7.2,3.8-14.5,5.7-21.7c1.8-6.6,3.5-13.1,5.1-19.2c0-0.1,0-0.2,0.1-0.3c0.4-1.7,0.9-3.4,1.3-5.1c1.7-6.3,3.5-7.8,9.8-7.8
		c0.1,0,0.2,0,0.3,0c0.9,0,1.8,0,2.6,0c3.4,0,6.1-0.1,8.2-0.1c9.1,0,8.9,0.9,21.5,10.9c6.6,5.2,13.2,10.4,19.8,15.7
		c1.9,1.5,3.2,2.3,4.3,2.3c1.5,0,2.4-1.6,3.3-5c1.7-6.4,3.5-12.8,5-19.2c0.7-3.2,2.2-4.8,5.4-4.8c0.1,0,0.3,0,0.4,0
		c1.9,0.1,3.9,0.1,5.8,0.1c2.6,0,5.2,0,7.8,0c0.9,0,1.8,0,2.7,0c4.3,0.1,4.8,0.7,3.7,4.9c-4.3,16.4-8.7,32.9-13.2,49.3
		c-1.9,6.9-6.8,10.4-14,10.5c-1.2,0-2.4,0-3.6,0c-1.9,0-3.8,0-5.7,0h-0.3c-1.6,0-3.2,0-4.7,0c-1,0-1.9,0-2.9,0.1c-0.4,0-0.8,0-1.2,0
		C1281.1,444.9,1276,441.2,1272.4,434.8L1272.4,434.8z M1646.6,524.5c-0.5,0-0.9,0-1.4,0c-80.4,0-212.5-8.3-212.5-8.3v2.6h-3.6v-2.6
		h-2.9v2.6h-4v-2.6h-2.8v2.6h-3.9c0,0,0-1.9,0-2.6c0-0.9-0.7-1-2.2-1.1c-0.1,0-0.1,0-0.2,0c-1.4,0-1.7,0.9-1.9,1.8
		c-0.5,2.3-2.1,2.9-3.9,2.9c-0.8,0-1.7-0.1-2.5-0.3c-1.2-0.2-2.3-0.3-3.2-0.3c-3.2,0-5.4,1.3-6.7,5c-1.9,5.3-8.6,8.4-15.6,8.4
		c-0.2,0-0.4,0-0.7,0c-4.9-0.1-9.7-0.5-14.6-0.9c-0.2,0-0.5,0-0.7,0c-1.8,0-3,0.6-4,2.2c-2.4,4-6.3,5.9-11.4,5.9c-0.5,0-1,0-1.5-0.1
		c-12.3-0.9-24.5-1.6-36.8-2.5c-0.5,0-1-0.1-1.5-0.1c-2.2,0-3.8,0.6-4.5,3c-0.6,2.2-2.9,3.1-5.5,3.1c-0.2,0-0.4,0-0.6,0
		c-4.5-0.2-9.1-0.5-13.6-1c-3.9-0.4-5.8-2.3-5.3-5.6c3.4-23.6,6.8-47.2,10.3-70.8c0.3-2,1.3-3.3,2.8-4.1c0.3,0,0.5,0,0.8,0
		c0.7,0,1.4,0,2.1,0c0.9,0,1.7,0,2.6,0h0.3c0.9,0,1.8,0,2.8,0c1,0,1.9,0,2.9,0c1,0,1.9,0,2.7,0c1.2,0.1,2.4,0.2,3.7,0.4
		c2.8,0.3,4.8,1.6,4.8,4c0,2.6,1.8,3.1,4.4,3.3c12,0.8,24.1,1.7,36.1,2.4c6.6,0.4,11.1,2.8,12.4,8.2c0.4,1.7,1.8,2.1,3.6,2.2
		c4.4,0.3,8.8,0.6,13.3,0.9c9,0.7,15.1,5.6,15.6,12.9c0.2,2.4,1.2,3.4,4,3.4h0.1c0,0,0,0,0.1,0c1.5,0,3,0.2,4.6,0.3
		c3,0.2,4.1,6,4.1,6l2.9,0.1v-3.1h3.9v3.1h2.8v-3.1h4c0,0,0,3.1,0,3.1l0,0c0,0,0.5,0,1.1,0c0.8,0,1.9,0,1.8,0c0,0,0-3.1,0-3.1h3.6
		v3.1c13.9-0.2,20.3-0.5,50.6-1.1c119.3-2.6,187.4-25.1,196.7-48.9c4.4,3.8,10.4,5.7,17.9,5.8c5.8,0,11.6,0,17.5,0c4,0,8.1,0,12.1,0
		c4,0,8.1,0,12.1,0h0.5c1,0,2,0,3.1,0l-10.9,1.4c-8.5,1.1-14.9,8.3-14.9,16.9s6.4,15.8,14.9,16.9l58.5,7.3c3.1,0.4,5.5,2.8,5.9,5.9
		l1.1,8.7C1757.2,522.6,1706.7,524.5,1646.6,524.5L1646.6,524.5z M1844.7,512.8l0.3-2.7c0.4-3.1,2.8-5.5,5.9-5.9l44.2-5.5
		C1883.4,504.4,1866.5,509,1844.7,512.8z M1848.8,487.4c-10.8,1.4-19.2,9.8-20.6,20.6l-0.9,7.5l-2.2,17.4l-4.2,33.6l-4.1-32.6
		l-0.5-3.8l-2.8-22.1c-1.4-10.8-9.8-19.2-20.6-20.6l-58.5-7.3l58.5-7.3c10.8-1.4,19.2-9.8,20.6-20.6l6.7-53.6l0.6-4.9l7.3,58.5
		c1.4,10.8,9.8,19.2,20.6,20.6l58.5,7.3L1848.8,487.4L1848.8,487.4z M1909.3,463.2l-58.5-7.3c-3.1-0.4-5.5-2.8-5.9-5.9l-5.3-42.2
		c42.8,21.3,68.1,40.8,74.3,56.7C1912.6,463.9,1911,463.4,1909.3,463.2L1909.3,463.2z"/>
</g>
</svg>
